<svg xmlns="http://www.w3.org/2000/svg" xmlns:xlink="http://www.w3.org/1999/xlink" width="370" zoomAndPan="magnify" viewBox="0 0 277.5 374.999991" height="500" preserveAspectRatio="xMidYMid meet" version="1.0"><defs><clipPath id="3c4a1c7a39"><path d="M 5 0.710938 L 271 0.710938 L 271 374.660156 L 5 374.660156 Z M 5 0.710938 " clip-rule="nonzero"/></clipPath></defs><g clip-path="url(#3c4a1c7a39)"><path fill="#040606" d="M 50.277344 204.992188 L 108.085938 204.992188 C 118.492188 204.992188 133.851562 211.882812 133.851562 226.632812 L 133.851562 309.09375 L 225.566406 170.734375 L 159.84375 170.734375 C 153.730469 170.734375 148.277344 168.003906 144.851562 163.242188 C 142.527344 160.015625 140.296875 154.652344 142.394531 147.296875 L 142.394531 62.003906 Z M 119.820312 375.710938 C 108.484375 375.710938 99.609375 366.222656 99.609375 354.074219 L 99.609375 239.25 L 27.105469 239.25 C 19.0625 239.25 11.714844 234.820312 7.957031 227.664062 C 4.234375 220.472656 4.769531 211.917969 9.386719 205.289062 L 134.847656 10.5 C 139.234375 4.175781 146.082031 0.710938 153.53125 0.710938 C 166.460938 0.710938 176.601562 10.199219 176.601562 22.351562 L 176.601562 136.476562 L 249.070312 136.476562 C 257.246094 136.476562 264.628906 141.039062 268.351562 148.363281 C 272.039062 155.652344 271.308594 164.34375 266.457031 170.933594 L 136.507812 366.921875 C 132.386719 372.515625 126.304688 375.710938 119.820312 375.710938 " fill-opacity="1" fill-rule="nonzero"/></g></svg>