<svg xmlns="http://www.w3.org/2000/svg" xmlns:xlink="http://www.w3.org/1999/xlink" width="500" zoomAndPan="magnify" viewBox="0 0 375 367.499994" height="490" preserveAspectRatio="xMidYMid meet" version="1.0"><defs><clipPath id="e2567db852"><path d="M 0.253906 3 L 374.746094 3 L 374.746094 364.847656 L 0.253906 364.847656 Z M 0.253906 3 " clip-rule="nonzero"/></clipPath></defs><g clip-path="url(#e2567db852)"><path fill="#1a6d33" d="M 366.476562 10.425781 C 365.257812 9.246094 363.9375 8.195312 362.515625 7.269531 C 361.09375 6.347656 359.59375 5.566406 358.023438 4.933594 C 356.449219 4.296875 354.832031 3.820312 353.167969 3.496094 C 351.5 3.175781 349.820312 3.015625 348.125 3.019531 L 221.363281 3.019531 C 220.015625 3.019531 218.671875 3.125 217.339844 3.328125 C 216.007812 3.535156 214.699219 3.839844 213.410156 4.246094 C 212.125 4.652344 210.878906 5.152344 209.667969 5.75 C 208.457031 6.347656 207.300781 7.035156 206.195312 7.808594 C 205.09375 8.582031 204.050781 9.4375 203.078125 10.367188 C 202.105469 11.300781 201.207031 12.304688 200.386719 13.375 C 199.566406 14.445312 198.832031 15.574219 198.183594 16.757812 C 197.535156 17.941406 196.980469 19.164062 196.519531 20.433594 L 182.792969 58.253906 C 182.511719 59.019531 182.125 59.726562 181.628906 60.375 C 181.128906 61.023438 180.546875 61.578125 179.878906 62.046875 C 179.214844 62.515625 178.492188 62.875 177.714844 63.121094 C 176.933594 63.367188 176.140625 63.492188 175.324219 63.492188 L 26.613281 63.492188 C 25.75 63.492188 24.886719 63.535156 24.023438 63.621094 C 23.160156 63.703125 22.308594 63.832031 21.457031 64 C 20.609375 64.167969 19.769531 64.378906 18.941406 64.632812 C 18.113281 64.882812 17.300781 65.175781 16.5 65.503906 C 15.699219 65.835938 14.917969 66.207031 14.15625 66.613281 C 13.390625 67.023438 12.648438 67.46875 11.929688 67.949219 C 11.210938 68.429688 10.515625 68.945312 9.847656 69.496094 C 9.179688 70.042969 8.539062 70.625 7.925781 71.238281 C 7.3125 71.851562 6.734375 72.492188 6.183594 73.160156 C 5.632812 73.828125 5.121094 74.523438 4.636719 75.246094 C 4.15625 75.964844 3.714844 76.707031 3.304688 77.46875 C 2.898438 78.234375 2.527344 79.015625 2.195312 79.816406 C 1.863281 80.617188 1.574219 81.429688 1.320312 82.257812 C 1.070312 83.089844 0.859375 83.925781 0.691406 84.777344 C 0.523438 85.625 0.394531 86.480469 0.308594 87.34375 C 0.226562 88.203125 0.183594 89.070312 0.183594 89.933594 L 0.183594 337.203125 C 0.183594 338.085938 0.226562 338.96875 0.3125 339.847656 C 0.398438 340.726562 0.527344 341.601562 0.699219 342.46875 C 0.875 343.332031 1.085938 344.191406 1.34375 345.035156 C 1.601562 345.882812 1.898438 346.714844 2.234375 347.53125 C 2.574219 348.347656 2.953125 349.144531 3.367188 349.921875 C 3.785156 350.703125 4.238281 351.460938 4.730469 352.195312 C 5.21875 352.929688 5.746094 353.640625 6.304688 354.324219 C 6.867188 355.003906 7.457031 355.660156 8.082031 356.285156 C 8.707031 356.910156 9.359375 357.503906 10.042969 358.0625 C 10.726562 358.625 11.4375 359.148438 12.171875 359.640625 C 12.90625 360.132812 13.660156 360.585938 14.441406 361.003906 C 15.21875 361.417969 16.015625 361.796875 16.832031 362.136719 C 17.648438 362.472656 18.480469 362.769531 19.324219 363.027344 C 20.171875 363.285156 21.027344 363.5 21.894531 363.671875 C 22.757812 363.84375 23.632812 363.972656 24.511719 364.0625 C 25.390625 364.148438 26.269531 364.191406 27.15625 364.191406 L 347.585938 364.191406 C 348.46875 364.191406 349.347656 364.148438 350.230469 364.0625 C 351.109375 363.976562 351.980469 363.84375 352.847656 363.671875 C 353.714844 363.5 354.570312 363.285156 355.414062 363.03125 C 356.261719 362.773438 357.09375 362.476562 357.910156 362.136719 C 358.726562 361.800781 359.523438 361.421875 360.300781 361.003906 C 361.082031 360.589844 361.839844 360.132812 362.574219 359.644531 C 363.308594 359.152344 364.015625 358.625 364.699219 358.066406 C 365.382812 357.503906 366.035156 356.914062 366.660156 356.289062 C 367.285156 355.664062 367.878906 355.007812 368.4375 354.324219 C 369 353.640625 369.523438 352.933594 370.015625 352.199219 C 370.507812 351.460938 370.960938 350.707031 371.378906 349.925781 C 371.792969 349.144531 372.171875 348.347656 372.507812 347.53125 C 372.847656 346.714844 373.144531 345.882812 373.402344 345.039062 C 373.660156 344.191406 373.871094 343.335938 374.046875 342.46875 C 374.21875 341.601562 374.347656 340.726562 374.433594 339.847656 C 374.519531 338.96875 374.5625 338.085938 374.5625 337.203125 L 374.5625 29.464844 C 374.570312 27.6875 374.398438 25.925781 374.046875 24.183594 C 373.695312 22.441406 373.171875 20.75 372.476562 19.113281 C 371.78125 17.476562 370.929688 15.925781 369.917969 14.464844 C 368.90625 13 367.757812 11.65625 366.476562 10.425781 Z M 20.820312 84.496094 C 21.566406 83.691406 22.445312 83.070312 23.453125 82.632812 C 24.460938 82.195312 25.515625 81.980469 26.613281 81.984375 L 175.328125 81.984375 C 176.675781 81.980469 178.015625 81.878906 179.347656 81.671875 C 180.683594 81.464844 181.992188 81.15625 183.277344 80.75 C 184.5625 80.34375 185.808594 79.839844 187.019531 79.242188 C 188.226562 78.644531 189.382812 77.960938 190.488281 77.1875 C 191.59375 76.414062 192.632812 75.558594 193.605469 74.625 C 194.582031 73.695312 195.476562 72.691406 196.300781 71.621094 C 197.121094 70.554688 197.855469 69.425781 198.507812 68.246094 C 199.15625 67.0625 199.714844 65.839844 200.175781 64.570312 L 213.914062 26.753906 C 214.191406 25.988281 214.578125 25.28125 215.078125 24.632812 C 215.574219 23.988281 216.15625 23.429688 216.824219 22.960938 C 217.492188 22.492188 218.214844 22.132812 218.992188 21.886719 C 219.769531 21.640625 220.566406 21.515625 221.382812 21.515625 L 348.144531 21.515625 C 348.667969 21.515625 349.183594 21.566406 349.695312 21.667969 C 350.207031 21.769531 350.703125 21.921875 351.183594 22.121094 C 351.667969 22.320312 352.125 22.566406 352.558594 22.855469 C 352.992188 23.148438 353.394531 23.476562 353.761719 23.84375 C 354.132812 24.214844 354.460938 24.617188 354.75 25.050781 C 355.039062 25.484375 355.285156 25.941406 355.484375 26.425781 C 355.683594 26.90625 355.835938 27.402344 355.9375 27.914062 C 356.039062 28.425781 356.089844 28.945312 356.089844 29.464844 L 356.089844 134.050781 L 18.667969 134.050781 L 18.667969 89.933594 C 18.667969 88.925781 18.851562 87.949219 19.222656 87.011719 C 19.59375 86.070312 20.125 85.234375 20.820312 84.496094 Z M 352.71875 343.972656 C 351.203125 345.128906 349.492188 345.703125 347.585938 345.695312 L 27.15625 345.695312 C 26.15625 345.699219 25.1875 345.53125 24.246094 345.191406 C 23.308594 344.847656 22.457031 344.351562 21.695312 343.707031 C 20.734375 342.898438 19.988281 341.925781 19.460938 340.789062 C 18.929688 339.652344 18.667969 338.457031 18.667969 337.203125 L 18.667969 152.550781 L 356.078125 152.550781 L 356.078125 337.210938 C 356.082031 338.539062 355.789062 339.796875 355.195312 340.988281 C 354.605469 342.179688 353.777344 343.171875 352.71875 343.972656 Z M 352.71875 343.972656 " fill-opacity="1" fill-rule="nonzero"/></g></svg>