<svg xmlns="http://www.w3.org/2000/svg" xmlns:xlink="http://www.w3.org/1999/xlink" width="500" zoomAndPan="magnify" viewBox="0 0 375 367.499994" height="490" preserveAspectRatio="xMidYMid meet" version="1.0"><path fill="#1a6d33" d="M 258.980469 166.820312 C 257.953125 166.828125 256.957031 166.652344 255.996094 166.292969 C 255.03125 165.933594 254.164062 165.414062 253.394531 164.734375 C 252.980469 164.367188 252.605469 163.964844 252.273438 163.527344 C 251.9375 163.085938 251.652344 162.621094 251.410156 162.125 C 251.167969 161.625 250.980469 161.113281 250.839844 160.578125 C 250.703125 160.042969 250.617188 159.5 250.585938 158.949219 C 250.554688 158.398438 250.578125 157.851562 250.65625 157.304688 C 250.734375 156.757812 250.867188 156.226562 251.050781 155.707031 C 251.234375 155.183594 251.464844 154.6875 251.746094 154.214844 C 252.03125 153.738281 252.355469 153.296875 252.726562 152.890625 L 260.148438 144.546875 C 260.949219 143.664062 261.890625 142.980469 262.980469 142.5 C 264.074219 142.023438 265.214844 141.785156 266.40625 141.796875 L 329.296875 141.796875 C 329.84375 141.796875 330.386719 141.742188 330.921875 141.636719 C 331.460938 141.527344 331.980469 141.371094 332.488281 141.160156 C 332.992188 140.953125 333.472656 140.695312 333.929688 140.390625 C 334.386719 140.085938 334.804688 139.738281 335.195312 139.351562 C 335.582031 138.964844 335.925781 138.542969 336.230469 138.089844 C 336.535156 137.632812 336.792969 137.152344 337 136.648438 C 337.210938 136.140625 337.371094 135.621094 337.476562 135.082031 C 337.582031 134.542969 337.636719 134.003906 337.636719 133.453125 L 337.636719 25.023438 C 337.636719 24.476562 337.582031 23.933594 337.476562 23.394531 C 337.371094 22.859375 337.210938 22.335938 337 21.832031 C 336.792969 21.324219 336.535156 20.84375 336.230469 20.390625 C 335.925781 19.933594 335.582031 19.511719 335.195312 19.125 C 334.804688 18.738281 334.386719 18.390625 333.929688 18.085938 C 333.472656 17.785156 332.992188 17.527344 332.488281 17.316406 C 331.980469 17.105469 331.460938 16.949219 330.921875 16.84375 C 330.386719 16.734375 329.84375 16.683594 329.296875 16.683594 L 145.796875 16.683594 C 145.246094 16.683594 144.707031 16.734375 144.167969 16.84375 C 143.632812 16.949219 143.109375 17.105469 142.601562 17.316406 C 142.097656 17.527344 141.617188 17.785156 141.160156 18.085938 C 140.707031 18.390625 140.285156 18.738281 139.898438 19.125 C 139.511719 19.511719 139.164062 19.933594 138.859375 20.390625 C 138.554688 20.84375 138.300781 21.324219 138.089844 21.832031 C 137.878906 22.335938 137.722656 22.859375 137.613281 23.394531 C 137.507812 23.933594 137.453125 24.476562 137.453125 25.023438 L 137.453125 83.410156 C 137.453125 83.957031 137.402344 84.5 137.292969 85.035156 C 137.1875 85.574219 137.027344 86.09375 136.820312 86.601562 C 136.609375 87.105469 136.351562 87.585938 136.046875 88.042969 C 135.746094 88.5 135.398438 88.917969 135.011719 89.308594 C 134.625 89.695312 134.203125 90.039062 133.746094 90.34375 C 133.292969 90.648438 132.8125 90.90625 132.304688 91.113281 C 131.800781 91.324219 131.277344 91.484375 130.742188 91.589844 C 130.203125 91.695312 129.660156 91.75 129.113281 91.75 C 128.566406 91.75 128.023438 91.695312 127.484375 91.589844 C 126.949219 91.484375 126.425781 91.324219 125.921875 91.113281 C 125.414062 90.90625 124.933594 90.648438 124.480469 90.34375 C 124.023438 90.039062 123.601562 89.695312 123.214844 89.308594 C 122.828125 88.917969 122.484375 88.5 122.179688 88.042969 C 121.875 87.585938 121.617188 87.105469 121.40625 86.601562 C 121.199219 86.09375 121.039062 85.574219 120.933594 85.035156 C 120.824219 84.5 120.773438 83.957031 120.773438 83.410156 L 120.773438 25.023438 C 120.773438 24.203125 120.8125 23.386719 120.894531 22.570312 C 120.972656 21.753906 121.09375 20.945312 121.253906 20.140625 C 121.414062 19.335938 121.613281 18.542969 121.851562 17.757812 C 122.089844 16.976562 122.363281 16.203125 122.675781 15.445312 C 122.992188 14.691406 123.339844 13.949219 123.726562 13.226562 C 124.113281 12.503906 124.535156 11.800781 124.988281 11.121094 C 125.445312 10.4375 125.933594 9.78125 126.453125 9.148438 C 126.972656 8.515625 127.523438 7.910156 128.101562 7.328125 C 128.679688 6.75 129.289062 6.199219 129.921875 5.679688 C 130.554688 5.160156 131.210938 4.671875 131.894531 4.21875 C 132.574219 3.761719 133.277344 3.339844 134 2.953125 C 134.722656 2.566406 135.460938 2.21875 136.21875 1.90625 C 136.976562 1.589844 137.746094 1.316406 138.53125 1.078125 C 139.316406 0.839844 140.109375 0.640625 140.914062 0.480469 C 141.71875 0.320312 142.527344 0.199219 143.34375 0.121094 C 144.160156 0.0390625 144.976562 0 145.796875 0 L 329.296875 0 C 330.117188 0 330.933594 0.0390625 331.75 0.121094 C 332.5625 0.199219 333.375 0.320312 334.175781 0.480469 C 334.980469 0.640625 335.773438 0.839844 336.558594 1.078125 C 337.34375 1.316406 338.113281 1.589844 338.871094 1.90625 C 339.628906 2.21875 340.367188 2.566406 341.089844 2.953125 C 341.8125 3.339844 342.515625 3.761719 343.199219 4.21875 C 343.878906 4.671875 344.535156 5.160156 345.171875 5.679688 C 345.804688 6.199219 346.410156 6.75 346.988281 7.328125 C 347.570312 7.910156 348.117188 8.515625 348.636719 9.148438 C 349.160156 9.78125 349.644531 10.4375 350.101562 11.121094 C 350.558594 11.800781 350.976562 12.503906 351.363281 13.226562 C 351.75 13.949219 352.101562 14.691406 352.414062 15.445312 C 352.726562 16.203125 353.003906 16.976562 353.242188 17.757812 C 353.480469 18.542969 353.679688 19.335938 353.835938 20.140625 C 353.996094 20.945312 354.117188 21.753906 354.199219 22.570312 C 354.277344 23.386719 354.320312 24.203125 354.320312 25.023438 L 354.320312 133.453125 C 354.320312 134.273438 354.277344 135.09375 354.199219 135.90625 C 354.117188 136.722656 353.996094 137.53125 353.835938 138.335938 C 353.679688 139.140625 353.480469 139.933594 353.242188 140.71875 C 353.003906 141.503906 352.726562 142.273438 352.414062 143.03125 C 352.101562 143.789062 351.75 144.527344 351.363281 145.25 C 350.976562 145.972656 350.558594 146.675781 350.101562 147.355469 C 349.644531 148.039062 349.160156 148.695312 348.636719 149.328125 C 348.117188 149.960938 347.570312 150.570312 346.988281 151.148438 C 346.410156 151.726562 345.804688 152.277344 345.171875 152.796875 C 344.535156 153.316406 343.878906 153.804688 343.199219 154.261719 C 342.515625 154.714844 341.8125 155.136719 341.089844 155.523438 C 340.367188 155.910156 339.628906 156.257812 338.871094 156.574219 C 338.113281 156.886719 337.34375 157.164062 336.558594 157.398438 C 335.773438 157.636719 334.980469 157.835938 334.175781 157.996094 C 333.375 158.15625 332.5625 158.277344 331.75 158.355469 C 330.933594 158.4375 330.117188 158.476562 329.296875 158.476562 L 270.160156 158.476562 L 265.152344 164.066406 C 264.367188 164.941406 263.433594 165.617188 262.359375 166.09375 C 261.285156 166.574219 260.160156 166.816406 258.980469 166.820312 Z M 258.980469 166.820312 " fill-opacity="1" fill-rule="nonzero"/><path fill="#1a6d33" d="M 253.308594 367 C 252.117188 367.007812 250.976562 366.773438 249.886719 366.292969 C 248.796875 365.816406 247.851562 365.132812 247.054688 364.25 L 219.78125 333.636719 L 162.476562 333.636719 C 161.65625 333.636719 160.839844 333.597656 160.023438 333.515625 C 159.207031 333.4375 158.398438 333.316406 157.59375 333.15625 C 156.792969 332.996094 155.996094 332.796875 155.214844 332.558594 C 154.429688 332.320312 153.660156 332.046875 152.902344 331.730469 C 152.144531 331.417969 151.40625 331.070312 150.679688 330.683594 C 149.957031 330.296875 149.257812 329.875 148.574219 329.417969 C 147.894531 328.964844 147.238281 328.476562 146.601562 327.957031 C 145.96875 327.4375 145.363281 326.886719 144.785156 326.308594 C 144.203125 325.726562 143.652344 325.121094 143.132812 324.488281 C 142.613281 323.855469 142.125 323.199219 141.671875 322.515625 C 141.214844 321.835938 140.796875 321.132812 140.410156 320.410156 C 140.023438 319.6875 139.671875 318.945312 139.359375 318.191406 C 139.046875 317.433594 138.769531 316.664062 138.53125 315.878906 C 138.292969 315.09375 138.09375 314.300781 137.933594 313.496094 C 137.773438 312.691406 137.65625 311.882812 137.574219 311.066406 C 137.496094 310.25 137.453125 309.433594 137.453125 308.613281 L 137.453125 200.183594 C 137.453125 199.363281 137.496094 198.546875 137.574219 197.730469 C 137.65625 196.914062 137.773438 196.105469 137.933594 195.300781 C 138.09375 194.496094 138.292969 193.703125 138.53125 192.917969 C 138.769531 192.132812 139.046875 191.363281 139.359375 190.605469 C 139.671875 189.847656 140.023438 189.109375 140.410156 188.386719 C 140.796875 187.664062 141.214844 186.960938 141.671875 186.28125 C 142.125 185.597656 142.613281 184.941406 143.132812 184.308594 C 143.652344 183.675781 144.203125 183.066406 144.785156 182.488281 C 145.363281 181.910156 145.96875 181.359375 146.601562 180.839844 C 147.238281 180.320312 147.894531 179.832031 148.574219 179.375 C 149.257812 178.921875 149.957031 178.5 150.679688 178.113281 C 151.40625 177.726562 152.144531 177.378906 152.902344 177.0625 C 153.660156 176.75 154.429688 176.476562 155.214844 176.238281 C 155.996094 176 156.792969 175.800781 157.59375 175.640625 C 158.398438 175.480469 159.210938 175.359375 160.023438 175.28125 C 160.839844 175.199219 161.65625 175.160156 162.476562 175.160156 L 345.976562 175.160156 C 346.796875 175.160156 347.613281 175.199219 348.429688 175.28125 C 349.246094 175.359375 350.054688 175.480469 350.859375 175.640625 C 351.664062 175.800781 352.457031 176 353.242188 176.238281 C 354.027344 176.476562 354.796875 176.75 355.554688 177.0625 C 356.308594 177.378906 357.050781 177.726562 357.773438 178.113281 C 358.496094 178.5 359.199219 178.921875 359.878906 179.375 C 360.5625 179.832031 361.21875 180.320312 361.851562 180.839844 C 362.484375 181.359375 363.09375 181.910156 363.671875 182.488281 C 364.25 183.066406 364.800781 183.675781 365.320312 184.308594 C 365.839844 184.941406 366.328125 185.597656 366.785156 186.28125 C 367.238281 186.960938 367.660156 187.664062 368.046875 188.386719 C 368.433594 189.109375 368.78125 189.847656 369.09375 190.605469 C 369.410156 191.363281 369.683594 192.132812 369.921875 192.917969 C 370.160156 193.703125 370.359375 194.496094 370.519531 195.300781 C 370.679688 196.105469 370.800781 196.914062 370.878906 197.730469 C 370.960938 198.546875 371 199.363281 371 200.183594 L 371 308.613281 C 371 309.433594 370.960938 310.25 370.878906 311.066406 C 370.800781 311.882812 370.679688 312.691406 370.519531 313.496094 C 370.359375 314.300781 370.160156 315.09375 369.921875 315.878906 C 369.683594 316.664062 369.410156 317.433594 369.09375 318.191406 C 368.78125 318.945312 368.433594 319.6875 368.046875 320.410156 C 367.660156 321.132812 367.238281 321.835938 366.785156 322.515625 C 366.328125 323.199219 365.839844 323.855469 365.320312 324.488281 C 364.800781 325.121094 364.25 325.726562 363.671875 326.308594 C 363.09375 326.886719 362.484375 327.4375 361.851562 327.957031 C 361.21875 328.476562 360.5625 328.964844 359.878906 329.417969 C 359.199219 329.875 358.496094 330.296875 357.773438 330.683594 C 357.050781 331.070312 356.308594 331.417969 355.554688 331.730469 C 354.796875 332.046875 354.027344 332.320312 353.242188 332.558594 C 352.457031 332.796875 351.664062 332.996094 350.859375 333.15625 C 350.054688 333.316406 349.246094 333.4375 348.429688 333.515625 C 347.613281 333.597656 346.796875 333.636719 345.976562 333.636719 L 286.839844 333.636719 L 259.480469 364.25 C 258.695312 365.121094 257.761719 365.796875 256.6875 366.277344 C 255.613281 366.757812 254.488281 366.996094 253.308594 367 Z M 162.476562 191.839844 C 161.929688 191.839844 161.386719 191.894531 160.851562 192 C 160.3125 192.109375 159.792969 192.265625 159.285156 192.476562 C 158.78125 192.6875 158.296875 192.941406 157.84375 193.246094 C 157.386719 193.550781 156.964844 193.898438 156.578125 194.285156 C 156.191406 194.671875 155.847656 195.09375 155.542969 195.546875 C 155.238281 196.003906 154.980469 196.484375 154.769531 196.992188 C 154.5625 197.496094 154.402344 198.019531 154.296875 198.554688 C 154.191406 199.09375 154.136719 199.632812 154.136719 200.183594 L 154.136719 308.613281 C 154.136719 309.160156 154.191406 309.703125 154.296875 310.242188 C 154.402344 310.777344 154.5625 311.300781 154.769531 311.804688 C 154.980469 312.3125 155.238281 312.792969 155.542969 313.25 C 155.847656 313.703125 156.191406 314.125 156.578125 314.511719 C 156.964844 314.898438 157.386719 315.246094 157.84375 315.550781 C 158.296875 315.855469 158.777344 316.109375 159.285156 316.320312 C 159.792969 316.53125 160.3125 316.6875 160.851562 316.792969 C 161.386719 316.902344 161.929688 316.953125 162.476562 316.957031 L 223.449219 316.957031 C 224.640625 316.945312 225.78125 317.179688 226.871094 317.660156 C 227.960938 318.140625 228.90625 318.824219 229.703125 319.707031 L 253.308594 346.148438 L 276.832031 319.707031 C 277.628906 318.824219 278.574219 318.140625 279.664062 317.660156 C 280.753906 317.179688 281.894531 316.945312 283.085938 316.957031 L 345.976562 316.957031 C 346.523438 316.953125 347.066406 316.902344 347.605469 316.792969 C 348.140625 316.6875 348.664062 316.53125 349.167969 316.320312 C 349.675781 316.109375 350.15625 315.855469 350.613281 315.550781 C 351.066406 315.246094 351.488281 314.898438 351.875 314.511719 C 352.261719 314.125 352.609375 313.703125 352.914062 313.25 C 353.21875 312.792969 353.472656 312.3125 353.683594 311.804688 C 353.894531 311.300781 354.050781 310.777344 354.15625 310.242188 C 354.265625 309.703125 354.320312 309.160156 354.320312 308.613281 L 354.320312 200.183594 C 354.320312 199.632812 354.265625 199.09375 354.15625 198.554688 C 354.050781 198.019531 353.894531 197.496094 353.683594 196.988281 C 353.472656 196.484375 353.21875 196.003906 352.914062 195.546875 C 352.609375 195.09375 352.261719 194.671875 351.875 194.285156 C 351.488281 193.898438 351.066406 193.550781 350.613281 193.246094 C 350.15625 192.941406 349.675781 192.6875 349.167969 192.476562 C 348.664062 192.265625 348.140625 192.109375 347.605469 192 C 347.066406 191.894531 346.523438 191.839844 345.976562 191.839844 Z M 162.476562 191.839844 " fill-opacity="1" fill-rule="nonzero"/><path fill="#1a6d33" d="M 254.226562 316.957031 C 252.316406 316.957031 250.40625 316.863281 248.503906 316.675781 C 246.601562 316.488281 244.710938 316.207031 242.835938 315.832031 C 240.960938 315.460938 239.109375 314.996094 237.277344 314.441406 C 235.449219 313.886719 233.652344 313.242188 231.882812 312.511719 C 230.117188 311.777344 228.390625 310.960938 226.703125 310.0625 C 225.019531 309.160156 223.378906 308.175781 221.789062 307.113281 C 220.199219 306.054688 218.664062 304.914062 217.1875 303.703125 C 215.710938 302.488281 214.292969 301.207031 212.941406 299.855469 C 211.589844 298.503906 210.308594 297.085938 209.09375 295.609375 C 207.882812 294.128906 206.742188 292.597656 205.679688 291.007812 C 204.617188 289.417969 203.636719 287.777344 202.734375 286.09375 C 201.832031 284.40625 201.015625 282.679688 200.285156 280.914062 C 199.554688 279.144531 198.910156 277.347656 198.355469 275.515625 C 197.800781 273.6875 197.335938 271.835938 196.960938 269.960938 C 196.589844 268.082031 196.308594 266.195312 196.121094 264.292969 C 195.933594 262.386719 195.839844 260.480469 195.839844 258.570312 C 195.839844 256.65625 195.933594 254.75 196.121094 252.847656 C 196.308594 250.941406 196.589844 249.054688 196.960938 247.179688 C 197.335938 245.300781 197.800781 243.449219 198.355469 241.621094 C 198.910156 239.789062 199.554688 237.992188 200.285156 236.226562 C 201.015625 234.457031 201.832031 232.730469 202.734375 231.046875 C 203.636719 229.359375 204.617188 227.722656 205.679688 226.128906 C 206.742188 224.539062 207.882812 223.007812 209.09375 221.527344 C 210.308594 220.050781 211.589844 218.636719 212.941406 217.28125 C 214.292969 215.929688 215.710938 214.648438 217.1875 213.433594 C 218.664062 212.222656 220.199219 211.085938 221.789062 210.023438 C 223.378906 208.960938 225.019531 207.976562 226.703125 207.078125 C 228.390625 206.175781 230.117188 205.359375 231.882812 204.625 C 233.652344 203.894531 235.449219 203.25 237.277344 202.695312 C 239.109375 202.140625 240.960938 201.675781 242.835938 201.304688 C 244.710938 200.929688 246.601562 200.652344 248.503906 200.464844 C 250.40625 200.277344 252.316406 200.183594 254.226562 200.183594 C 256.140625 200.183594 258.046875 200.277344 259.949219 200.464844 C 261.851562 200.652344 263.742188 200.929688 265.617188 201.304688 C 267.492188 201.675781 269.347656 202.140625 271.175781 202.695312 C 273.007812 203.25 274.804688 203.894531 276.570312 204.625 C 278.335938 205.359375 280.0625 206.175781 281.75 207.078125 C 283.4375 207.976562 285.074219 208.960938 286.664062 210.023438 C 288.253906 211.085938 289.789062 212.222656 291.265625 213.433594 C 292.746094 214.648438 294.160156 215.929688 295.511719 217.28125 C 296.863281 218.636719 298.148438 220.050781 299.359375 221.527344 C 300.574219 223.007812 301.710938 224.539062 302.773438 226.128906 C 303.835938 227.722656 304.816406 229.359375 305.71875 231.046875 C 306.621094 232.730469 307.4375 234.457031 308.167969 236.226562 C 308.902344 237.992188 309.542969 239.789062 310.101562 241.621094 C 310.65625 243.449219 311.117188 245.300781 311.492188 247.179688 C 311.863281 249.054688 312.144531 250.941406 312.332031 252.847656 C 312.519531 254.75 312.613281 256.65625 312.613281 258.570312 C 312.613281 260.480469 312.519531 262.386719 312.332031 264.292969 C 312.144531 266.195312 311.863281 268.082031 311.492188 269.960938 C 311.117188 271.835938 310.65625 273.6875 310.101562 275.515625 C 309.542969 277.347656 308.902344 279.144531 308.167969 280.914062 C 307.4375 282.679688 306.621094 284.40625 305.71875 286.09375 C 304.816406 287.777344 303.835938 289.417969 302.773438 291.007812 C 301.710938 292.597656 300.574219 294.128906 299.359375 295.609375 C 298.148438 297.085938 296.863281 298.503906 295.511719 299.855469 C 294.160156 301.207031 292.746094 302.488281 291.265625 303.703125 C 289.789062 304.914062 288.253906 306.054688 286.664062 307.113281 C 285.074219 308.175781 283.4375 309.160156 281.75 310.0625 C 280.0625 310.960938 278.335938 311.777344 276.570312 312.511719 C 274.804688 313.242188 273.007812 313.886719 271.175781 314.441406 C 269.347656 314.996094 267.492188 315.460938 265.617188 315.832031 C 263.742188 316.207031 261.851562 316.488281 259.949219 316.675781 C 258.046875 316.863281 256.140625 316.957031 254.226562 316.957031 Z M 254.226562 216.863281 C 252.863281 216.863281 251.5 216.929688 250.140625 217.066406 C 248.78125 217.199219 247.429688 217.398438 246.089844 217.664062 C 244.75 217.933594 243.429688 218.261719 242.121094 218.660156 C 240.8125 219.054688 239.53125 219.515625 238.269531 220.039062 C 237.003906 220.5625 235.773438 221.144531 234.566406 221.789062 C 233.363281 222.433594 232.191406 223.132812 231.058594 223.890625 C 229.921875 224.652344 228.824219 225.464844 227.769531 226.332031 C 226.714844 227.195312 225.703125 228.113281 224.738281 229.078125 C 223.773438 230.042969 222.855469 231.054688 221.988281 232.113281 C 221.121094 233.167969 220.308594 234.261719 219.550781 235.398438 C 218.792969 236.535156 218.089844 237.703125 217.445312 238.910156 C 216.804688 240.113281 216.21875 241.347656 215.699219 242.609375 C 215.175781 243.871094 214.714844 245.15625 214.320312 246.460938 C 213.921875 247.769531 213.589844 249.09375 213.324219 250.433594 C 213.058594 251.773438 212.859375 253.121094 212.722656 254.480469 C 212.589844 255.839844 212.523438 257.203125 212.523438 258.570312 C 212.523438 259.933594 212.589844 261.296875 212.722656 262.65625 C 212.859375 264.015625 213.058594 265.363281 213.324219 266.703125 C 213.589844 268.042969 213.921875 269.367188 214.320312 270.675781 C 214.714844 271.980469 215.175781 273.265625 215.699219 274.527344 C 216.21875 275.789062 216.804688 277.023438 217.445312 278.226562 C 218.089844 279.433594 218.792969 280.601562 219.550781 281.738281 C 220.308594 282.875 221.121094 283.96875 221.988281 285.027344 C 222.855469 286.082031 223.773438 287.09375 224.738281 288.058594 C 225.703125 289.023438 226.714844 289.941406 227.769531 290.808594 C 228.824219 291.671875 229.921875 292.484375 231.058594 293.246094 C 232.191406 294.003906 233.363281 294.703125 234.566406 295.347656 C 235.773438 295.992188 237.003906 296.574219 238.269531 297.097656 C 239.53125 297.621094 240.8125 298.082031 242.121094 298.476562 C 243.429688 298.875 244.75 299.207031 246.089844 299.472656 C 247.429688 299.738281 248.78125 299.9375 250.140625 300.074219 C 251.5 300.207031 252.863281 300.273438 254.226562 300.273438 C 255.59375 300.273438 256.957031 300.207031 258.316406 300.074219 C 259.675781 299.9375 261.023438 299.738281 262.363281 299.472656 C 263.703125 299.207031 265.027344 298.875 266.332031 298.476562 C 267.640625 298.082031 268.925781 297.621094 270.1875 297.097656 C 271.449219 296.574219 272.683594 295.992188 273.886719 295.347656 C 275.089844 294.703125 276.261719 294.003906 277.398438 293.246094 C 278.53125 292.484375 279.628906 291.671875 280.683594 290.808594 C 281.742188 289.941406 282.75 289.023438 283.71875 288.058594 C 284.683594 287.09375 285.597656 286.082031 286.464844 285.027344 C 287.332031 283.96875 288.144531 282.875 288.902344 281.738281 C 289.664062 280.601562 290.363281 279.433594 291.007812 278.226562 C 291.652344 277.023438 292.234375 275.789062 292.757812 274.527344 C 293.28125 273.265625 293.738281 271.980469 294.136719 270.675781 C 294.53125 269.367188 294.863281 268.042969 295.128906 266.703125 C 295.398438 265.363281 295.597656 264.015625 295.730469 262.65625 C 295.863281 261.296875 295.933594 259.933594 295.933594 258.570312 C 295.933594 257.203125 295.863281 255.839844 295.730469 254.480469 C 295.597656 253.121094 295.398438 251.773438 295.128906 250.433594 C 294.863281 249.09375 294.53125 247.769531 294.136719 246.460938 C 293.738281 245.15625 293.28125 243.871094 292.757812 242.609375 C 292.234375 241.347656 291.652344 240.113281 291.007812 238.910156 C 290.363281 237.703125 289.664062 236.535156 288.902344 235.398438 C 288.144531 234.261719 287.332031 233.167969 286.464844 232.113281 C 285.597656 231.054688 284.683594 230.042969 283.71875 229.078125 C 282.75 228.113281 281.742188 227.195312 280.683594 226.332031 C 279.628906 225.464844 278.53125 224.652344 277.398438 223.890625 C 276.261719 223.132812 275.089844 222.433594 273.886719 221.789062 C 272.683594 221.144531 271.449219 220.5625 270.1875 220.039062 C 268.925781 219.515625 267.640625 219.054688 266.332031 218.660156 C 265.027344 218.261719 263.703125 217.933594 262.363281 217.664062 C 261.023438 217.398438 259.675781 217.199219 258.316406 217.066406 C 256.957031 216.929688 255.59375 216.863281 254.226562 216.863281 Z M 254.226562 216.863281 " fill-opacity="1" fill-rule="nonzero"/><path fill="#1a6d33" d="M 254.226562 287.761719 C 253.40625 287.761719 252.589844 287.722656 251.773438 287.640625 C 250.960938 287.5625 250.148438 287.441406 249.34375 287.28125 C 248.542969 287.121094 247.746094 286.921875 246.964844 286.683594 C 246.179688 286.445312 245.410156 286.171875 244.652344 285.855469 C 243.894531 285.542969 243.15625 285.195312 242.433594 284.808594 C 241.707031 284.421875 241.007812 284 240.324219 283.542969 C 239.644531 283.089844 238.988281 282.601562 238.351562 282.082031 C 237.71875 281.5625 237.113281 281.011719 236.535156 280.433594 C 235.953125 279.851562 235.40625 279.246094 234.882812 278.613281 C 234.363281 277.980469 233.878906 277.324219 233.421875 276.640625 C 232.964844 275.960938 232.546875 275.257812 232.160156 274.535156 C 231.773438 273.8125 231.421875 273.070312 231.109375 272.316406 C 230.796875 271.558594 230.519531 270.785156 230.28125 270.003906 C 230.042969 269.21875 229.84375 268.425781 229.683594 267.621094 C 229.527344 266.816406 229.40625 266.007812 229.324219 265.191406 C 229.246094 264.375 229.203125 263.558594 229.203125 262.738281 C 229.203125 262.191406 229.257812 261.648438 229.363281 261.113281 C 229.472656 260.574219 229.628906 260.054688 229.839844 259.546875 C 230.050781 259.042969 230.304688 258.558594 230.609375 258.105469 C 230.914062 257.648438 231.261719 257.226562 231.648438 256.839844 C 232.035156 256.453125 232.457031 256.109375 232.910156 255.804688 C 233.367188 255.5 233.847656 255.242188 234.355469 255.03125 C 234.859375 254.824219 235.382812 254.664062 235.917969 254.558594 C 236.457031 254.453125 236.996094 254.398438 237.546875 254.398438 C 238.09375 254.398438 238.636719 254.453125 239.171875 254.558594 C 239.710938 254.664062 240.230469 254.824219 240.738281 255.03125 C 241.242188 255.242188 241.722656 255.5 242.179688 255.804688 C 242.636719 256.109375 243.054688 256.453125 243.445312 256.839844 C 243.832031 257.226562 244.175781 257.648438 244.480469 258.105469 C 244.785156 258.558594 245.042969 259.042969 245.25 259.546875 C 245.460938 260.054688 245.621094 260.574219 245.726562 261.113281 C 245.832031 261.648438 245.886719 262.191406 245.886719 262.738281 C 245.886719 263.285156 245.941406 263.828125 246.046875 264.367188 C 246.152344 264.902344 246.3125 265.425781 246.519531 265.929688 C 246.730469 266.4375 246.988281 266.917969 247.292969 267.371094 C 247.597656 267.828125 247.941406 268.25 248.328125 268.636719 C 248.714844 269.023438 249.136719 269.371094 249.59375 269.675781 C 250.046875 269.980469 250.53125 270.234375 251.035156 270.445312 C 251.542969 270.65625 252.0625 270.8125 252.601562 270.917969 C 253.136719 271.027344 253.679688 271.078125 254.226562 271.078125 C 254.773438 271.078125 255.316406 271.027344 255.855469 270.917969 C 256.390625 270.8125 256.914062 270.65625 257.417969 270.445312 C 257.925781 270.234375 258.40625 269.980469 258.863281 269.675781 C 259.316406 269.371094 259.738281 269.023438 260.125 268.636719 C 260.511719 268.25 260.859375 267.828125 261.164062 267.375 C 261.46875 266.917969 261.722656 266.4375 261.933594 265.929688 C 262.144531 265.425781 262.300781 264.902344 262.40625 264.367188 C 262.515625 263.828125 262.566406 263.285156 262.566406 262.738281 C 262.566406 262.191406 262.621094 261.648438 262.730469 261.113281 C 262.835938 260.574219 262.992188 260.054688 263.203125 259.546875 C 263.414062 259.042969 263.667969 258.558594 263.972656 258.105469 C 264.277344 257.648438 264.625 257.226562 265.011719 256.839844 C 265.398438 256.453125 265.820312 256.109375 266.273438 255.804688 C 266.730469 255.5 267.210938 255.242188 267.71875 255.03125 C 268.222656 254.824219 268.746094 254.664062 269.28125 254.558594 C 269.820312 254.453125 270.363281 254.398438 270.910156 254.398438 C 271.457031 254.398438 272 254.453125 272.535156 254.558594 C 273.074219 254.664062 273.59375 254.824219 274.101562 255.03125 C 274.605469 255.242188 275.085938 255.5 275.542969 255.804688 C 276 256.109375 276.417969 256.453125 276.808594 256.839844 C 277.195312 257.226562 277.539062 257.648438 277.84375 258.105469 C 278.148438 258.558594 278.40625 259.042969 278.613281 259.546875 C 278.824219 260.054688 278.984375 260.574219 279.089844 261.113281 C 279.195312 261.648438 279.25 262.191406 279.25 262.738281 C 279.25 263.558594 279.210938 264.375 279.128906 265.191406 C 279.050781 266.007812 278.929688 266.816406 278.769531 267.621094 C 278.609375 268.425781 278.410156 269.21875 278.171875 270.003906 C 277.933594 270.785156 277.660156 271.558594 277.34375 272.316406 C 277.03125 273.070312 276.683594 273.8125 276.296875 274.535156 C 275.910156 275.257812 275.488281 275.960938 275.03125 276.640625 C 274.578125 277.324219 274.089844 277.980469 273.570312 278.613281 C 273.050781 279.246094 272.5 279.851562 271.921875 280.433594 C 271.339844 281.011719 270.734375 281.5625 270.101562 282.082031 C 269.46875 282.601562 268.8125 283.089844 268.128906 283.542969 C 267.449219 284 266.746094 284.421875 266.023438 284.808594 C 265.300781 285.195312 264.558594 285.542969 263.804688 285.855469 C 263.046875 286.171875 262.273438 286.445312 261.492188 286.683594 C 260.707031 286.921875 259.914062 287.121094 259.109375 287.28125 C 258.304688 287.441406 257.496094 287.5625 256.679688 287.640625 C 255.863281 287.722656 255.046875 287.761719 254.226562 287.761719 Z M 254.226562 287.761719 " fill-opacity="1" fill-rule="nonzero"/><path fill="#1a6d33" d="M 119.855469 291.933594 C 118.679688 291.929688 117.550781 291.6875 116.476562 291.210938 C 115.402344 290.730469 114.472656 290.054688 113.683594 289.179688 L 86.242188 258.570312 L 29.023438 258.570312 C 28.203125 258.570312 27.386719 258.527344 26.570312 258.449219 C 25.753906 258.367188 24.945312 258.246094 24.140625 258.085938 C 23.335938 257.929688 22.542969 257.730469 21.757812 257.492188 C 20.972656 257.253906 20.203125 256.976562 19.445312 256.664062 C 18.691406 256.351562 17.949219 256 17.226562 255.613281 C 16.503906 255.226562 15.800781 254.808594 15.121094 254.351562 C 14.4375 253.894531 13.78125 253.410156 13.148438 252.890625 C 12.515625 252.367188 11.90625 251.820312 11.328125 251.238281 C 10.75 250.660156 10.199219 250.054688 9.679688 249.421875 C 9.160156 248.785156 8.671875 248.128906 8.214844 247.449219 C 7.761719 246.765625 7.339844 246.0625 6.953125 245.339844 C 6.566406 244.617188 6.21875 243.878906 5.90625 243.121094 C 5.589844 242.363281 5.316406 241.59375 5.078125 240.808594 C 4.839844 240.023438 4.640625 239.230469 4.480469 238.425781 C 4.320312 237.625 4.199219 236.8125 4.121094 236 C 4.039062 235.183594 4 234.367188 4 233.546875 L 4 125.113281 C 4 124.292969 4.039062 123.476562 4.121094 122.660156 C 4.199219 121.84375 4.320312 121.035156 4.480469 120.230469 C 4.640625 119.429688 4.839844 118.632812 5.078125 117.851562 C 5.316406 117.066406 5.589844 116.296875 5.90625 115.539062 C 6.21875 114.78125 6.566406 114.039062 6.953125 113.316406 C 7.339844 112.59375 7.761719 111.894531 8.214844 111.210938 C 8.671875 110.53125 9.160156 109.875 9.679688 109.238281 C 10.199219 108.605469 10.75 108 11.328125 107.421875 C 11.90625 106.839844 12.515625 106.289062 13.148438 105.769531 C 13.78125 105.25 14.4375 104.761719 15.121094 104.308594 C 15.800781 103.851562 16.503906 103.433594 17.226562 103.046875 C 17.949219 102.660156 18.691406 102.308594 19.445312 101.996094 C 20.203125 101.683594 20.972656 101.40625 21.757812 101.167969 C 22.542969 100.929688 23.335938 100.730469 24.140625 100.570312 C 24.945312 100.410156 25.753906 100.292969 26.570312 100.210938 C 27.386719 100.132812 28.203125 100.089844 29.023438 100.089844 L 212.523438 100.089844 C 213.34375 100.089844 214.160156 100.132812 214.976562 100.210938 C 215.789062 100.292969 216.601562 100.410156 217.40625 100.570312 C 218.207031 100.730469 219.003906 100.929688 219.785156 101.167969 C 220.570312 101.40625 221.339844 101.683594 222.097656 101.996094 C 222.855469 102.308594 223.59375 102.660156 224.320312 103.046875 C 225.042969 103.433594 225.742188 103.851562 226.425781 104.308594 C 227.105469 104.761719 227.761719 105.25 228.398438 105.769531 C 229.03125 106.289062 229.636719 106.839844 230.214844 107.421875 C 230.796875 108 231.347656 108.605469 231.867188 109.238281 C 232.386719 109.875 232.875 110.53125 233.328125 111.210938 C 233.785156 111.894531 234.203125 112.59375 234.589844 113.316406 C 234.976562 114.039062 235.328125 114.78125 235.640625 115.539062 C 235.953125 116.296875 236.230469 117.066406 236.46875 117.851562 C 236.707031 118.632812 236.90625 119.429688 237.066406 120.230469 C 237.222656 121.035156 237.34375 121.84375 237.425781 122.660156 C 237.503906 123.476562 237.546875 124.292969 237.546875 125.113281 L 237.546875 158.476562 C 237.546875 159.023438 237.492188 159.566406 237.386719 160.105469 C 237.277344 160.640625 237.121094 161.164062 236.910156 161.667969 C 236.699219 162.175781 236.445312 162.65625 236.140625 163.113281 C 235.835938 163.566406 235.488281 163.988281 235.101562 164.375 C 234.714844 164.761719 234.292969 165.109375 233.839844 165.414062 C 233.382812 165.71875 232.902344 165.972656 232.398438 166.183594 C 231.890625 166.394531 231.367188 166.550781 230.832031 166.660156 C 230.292969 166.765625 229.753906 166.820312 229.203125 166.820312 C 228.65625 166.820312 228.113281 166.765625 227.578125 166.660156 C 227.039062 166.550781 226.519531 166.394531 226.011719 166.183594 C 225.507812 165.972656 225.027344 165.71875 224.570312 165.414062 C 224.117188 165.109375 223.695312 164.761719 223.308594 164.375 C 222.917969 163.988281 222.574219 163.566406 222.269531 163.113281 C 221.964844 162.65625 221.707031 162.175781 221.5 161.667969 C 221.289062 161.164062 221.128906 160.640625 221.023438 160.105469 C 220.917969 159.566406 220.863281 159.023438 220.863281 158.476562 L 220.863281 125.113281 C 220.863281 124.566406 220.808594 124.023438 220.703125 123.488281 C 220.597656 122.949219 220.4375 122.429688 220.230469 121.921875 C 220.019531 121.414062 219.761719 120.933594 219.457031 120.480469 C 219.152344 120.023438 218.808594 119.601562 218.421875 119.214844 C 218.035156 118.828125 217.613281 118.484375 217.15625 118.179688 C 216.703125 117.875 216.21875 117.617188 215.714844 117.40625 C 215.207031 117.199219 214.6875 117.039062 214.148438 116.933594 C 213.613281 116.828125 213.070312 116.773438 212.523438 116.773438 L 29.023438 116.773438 C 28.476562 116.773438 27.933594 116.828125 27.394531 116.933594 C 26.859375 117.039062 26.335938 117.199219 25.832031 117.40625 C 25.324219 117.617188 24.84375 117.875 24.386719 118.179688 C 23.933594 118.484375 23.511719 118.828125 23.125 119.214844 C 22.738281 119.601562 22.390625 120.023438 22.085938 120.480469 C 21.78125 120.933594 21.527344 121.414062 21.316406 121.921875 C 21.105469 122.429688 20.949219 122.949219 20.839844 123.488281 C 20.734375 124.023438 20.679688 124.566406 20.679688 125.113281 L 20.679688 233.546875 C 20.679688 234.09375 20.734375 234.636719 20.839844 235.171875 C 20.949219 235.710938 21.105469 236.230469 21.316406 236.738281 C 21.527344 237.242188 21.78125 237.722656 22.085938 238.179688 C 22.390625 238.636719 22.738281 239.054688 23.125 239.445312 C 23.511719 239.832031 23.933594 240.175781 24.386719 240.480469 C 24.84375 240.785156 25.324219 241.042969 25.832031 241.25 C 26.335938 241.460938 26.859375 241.621094 27.394531 241.726562 C 27.933594 241.832031 28.476562 241.886719 29.023438 241.886719 L 89.996094 241.886719 C 91.1875 241.878906 92.328125 242.113281 93.417969 242.59375 C 94.507812 243.074219 95.453125 243.753906 96.25 244.640625 L 126.109375 278.003906 C 126.480469 278.414062 126.808594 278.855469 127.089844 279.328125 C 127.371094 279.800781 127.605469 280.300781 127.789062 280.820312 C 127.972656 281.339844 128.101562 281.871094 128.179688 282.417969 C 128.257812 282.964844 128.28125 283.511719 128.25 284.0625 C 128.21875 284.613281 128.132812 285.15625 127.996094 285.691406 C 127.855469 286.226562 127.667969 286.742188 127.425781 287.238281 C 127.183594 287.734375 126.898438 288.199219 126.5625 288.640625 C 126.230469 289.078125 125.855469 289.480469 125.445312 289.847656 C 124.671875 290.527344 123.804688 291.046875 122.84375 291.40625 C 121.878906 291.765625 120.882812 291.941406 119.855469 291.933594 Z M 119.855469 291.933594 " fill-opacity="1" fill-rule="nonzero"/><path fill="#1a6d33" d="M 279.25 50.046875 L 170.816406 50.046875 C 170.269531 50.046875 169.726562 49.992188 169.191406 49.886719 C 168.652344 49.777344 168.132812 49.621094 167.625 49.410156 C 167.121094 49.199219 166.640625 48.945312 166.183594 48.640625 C 165.730469 48.335938 165.308594 47.988281 164.921875 47.601562 C 164.53125 47.214844 164.1875 46.792969 163.882812 46.339844 C 163.578125 45.882812 163.320312 45.402344 163.113281 44.898438 C 162.902344 44.390625 162.746094 43.867188 162.636719 43.332031 C 162.53125 42.792969 162.476562 42.253906 162.476562 41.703125 C 162.476562 41.15625 162.53125 40.613281 162.636719 40.078125 C 162.746094 39.539062 162.902344 39.019531 163.113281 38.511719 C 163.320312 38.007812 163.578125 37.527344 163.882812 37.070312 C 164.1875 36.617188 164.53125 36.195312 164.921875 35.808594 C 165.308594 35.417969 165.730469 35.074219 166.183594 34.769531 C 166.640625 34.464844 167.121094 34.207031 167.625 34 C 168.132812 33.789062 168.652344 33.628906 169.191406 33.523438 C 169.726562 33.417969 170.269531 33.363281 170.816406 33.363281 L 279.25 33.363281 C 279.796875 33.363281 280.339844 33.417969 280.878906 33.523438 C 281.414062 33.628906 281.9375 33.789062 282.441406 34 C 282.949219 34.207031 283.429688 34.464844 283.882812 34.769531 C 284.339844 35.074219 284.761719 35.417969 285.148438 35.808594 C 285.535156 36.195312 285.882812 36.617188 286.183594 37.070312 C 286.488281 37.527344 286.746094 38.007812 286.957031 38.511719 C 287.164062 39.019531 287.324219 39.539062 287.429688 40.078125 C 287.539062 40.613281 287.589844 41.15625 287.589844 41.703125 C 287.589844 42.253906 287.539062 42.792969 287.429688 43.332031 C 287.324219 43.867188 287.164062 44.390625 286.957031 44.898438 C 286.746094 45.402344 286.488281 45.882812 286.183594 46.339844 C 285.882812 46.792969 285.535156 47.214844 285.148438 47.601562 C 284.761719 47.988281 284.339844 48.335938 283.882812 48.640625 C 283.429688 48.945312 282.949219 49.199219 282.441406 49.410156 C 281.9375 49.621094 281.414062 49.777344 280.878906 49.886719 C 280.339844 49.992188 279.796875 50.046875 279.25 50.046875 Z M 279.25 50.046875 " fill-opacity="1" fill-rule="nonzero"/><path fill="#1a6d33" d="M 237.546875 83.410156 L 170.816406 83.410156 C 170.269531 83.410156 169.726562 83.355469 169.191406 83.25 C 168.652344 83.140625 168.132812 82.984375 167.625 82.773438 C 167.121094 82.566406 166.640625 82.308594 166.183594 82.003906 C 165.730469 81.699219 165.308594 81.351562 164.921875 80.964844 C 164.53125 80.578125 164.1875 80.15625 163.882812 79.703125 C 163.578125 79.246094 163.320312 78.765625 163.113281 78.261719 C 162.902344 77.753906 162.746094 77.234375 162.636719 76.695312 C 162.53125 76.160156 162.476562 75.617188 162.476562 75.066406 C 162.476562 74.519531 162.53125 73.976562 162.636719 73.441406 C 162.746094 72.902344 162.902344 72.382812 163.113281 71.875 C 163.320312 71.371094 163.578125 70.890625 163.882812 70.433594 C 164.1875 69.980469 164.53125 69.558594 164.921875 69.171875 C 165.308594 68.78125 165.730469 68.4375 166.183594 68.132812 C 166.640625 67.828125 167.121094 67.570312 167.625 67.363281 C 168.132812 67.152344 168.652344 66.996094 169.191406 66.886719 C 169.726562 66.78125 170.269531 66.726562 170.816406 66.726562 L 237.546875 66.726562 C 238.09375 66.726562 238.636719 66.78125 239.171875 66.886719 C 239.710938 66.996094 240.230469 67.152344 240.738281 67.363281 C 241.242188 67.570312 241.722656 67.828125 242.179688 68.132812 C 242.636719 68.4375 243.054688 68.78125 243.445312 69.171875 C 243.832031 69.558594 244.175781 69.980469 244.480469 70.433594 C 244.785156 70.890625 245.042969 71.371094 245.25 71.875 C 245.460938 72.382812 245.621094 72.902344 245.726562 73.441406 C 245.832031 73.976562 245.886719 74.519531 245.886719 75.066406 C 245.886719 75.617188 245.832031 76.160156 245.726562 76.695312 C 245.621094 77.234375 245.460938 77.753906 245.25 78.261719 C 245.042969 78.765625 244.785156 79.246094 244.480469 79.703125 C 244.175781 80.15625 243.832031 80.578125 243.445312 80.964844 C 243.054688 81.351562 242.636719 81.699219 242.179688 82.003906 C 241.722656 82.308594 241.242188 82.566406 240.738281 82.773438 C 240.230469 82.984375 239.710938 83.140625 239.171875 83.25 C 238.636719 83.355469 238.09375 83.410156 237.546875 83.410156 Z M 237.546875 83.410156 " fill-opacity="1" fill-rule="nonzero"/><path fill="#1a6d33" d="M 120.773438 239.21875 C 119.664062 239.222656 118.597656 239.019531 117.570312 238.597656 C 116.542969 238.179688 115.636719 237.578125 114.851562 236.796875 L 79.820312 201.851562 C 57.796875 179.832031 59.96875 157.644531 71.476562 146.382812 C 82.988281 135.121094 100.753906 133.453125 120.773438 149.636719 C 123.140625 147.472656 125.71875 145.59375 128.5 144 C 131.285156 142.40625 134.207031 141.132812 137.269531 140.179688 C 140.332031 139.230469 143.464844 138.621094 146.660156 138.359375 C 149.855469 138.097656 153.042969 138.1875 156.222656 138.625 C 158.464844 139.070312 160.617188 139.78125 162.683594 140.757812 C 164.75 141.738281 166.664062 142.957031 168.425781 144.414062 C 170.1875 145.871094 171.742188 147.519531 173.09375 149.363281 C 174.445312 151.207031 175.550781 153.1875 176.40625 155.308594 C 176.609375 155.816406 176.761719 156.339844 176.859375 156.878906 C 176.960938 157.417969 177.007812 157.964844 177 158.511719 C 176.992188 159.058594 176.929688 159.601562 176.816406 160.136719 C 176.703125 160.675781 176.535156 161.195312 176.320312 161.699219 C 176.101562 162.203125 175.839844 162.679688 175.527344 163.128906 C 175.214844 163.582031 174.863281 164 174.472656 164.382812 C 174.078125 164.761719 173.652344 165.101562 173.191406 165.402344 C 172.730469 165.699219 172.246094 165.949219 171.734375 166.152344 C 171.226562 166.355469 170.703125 166.503906 170.164062 166.605469 C 169.625 166.707031 169.082031 166.75 168.53125 166.742188 C 167.984375 166.738281 167.441406 166.675781 166.90625 166.5625 C 166.367188 166.445312 165.847656 166.28125 165.34375 166.0625 C 164.84375 165.847656 164.363281 165.582031 163.914062 165.273438 C 163.460938 164.960938 163.042969 164.609375 162.664062 164.214844 C 162.28125 163.824219 161.941406 163.394531 161.644531 162.933594 C 161.34375 162.476562 161.09375 161.988281 160.890625 161.480469 C 160.546875 160.613281 160.09375 159.808594 159.535156 159.0625 C 158.976562 158.3125 158.332031 157.652344 157.601562 157.074219 C 156.867188 156.496094 156.074219 156.023438 155.21875 155.652344 C 154.363281 155.28125 153.472656 155.027344 152.550781 154.890625 C 150.074219 154.8125 147.621094 155.015625 145.195312 155.507812 C 142.765625 155.996094 140.425781 156.761719 138.175781 157.796875 C 135.921875 158.832031 133.820312 160.109375 131.867188 161.632812 C 129.914062 163.160156 128.164062 164.886719 126.609375 166.820312 C 126.222656 167.210938 125.800781 167.558594 125.34375 167.867188 C 124.886719 168.171875 124.40625 168.433594 123.898438 168.644531 C 123.390625 168.855469 122.863281 169.015625 122.324219 169.125 C 121.785156 169.230469 121.238281 169.285156 120.6875 169.285156 C 120.136719 169.285156 119.59375 169.230469 119.054688 169.125 C 118.515625 169.015625 117.988281 168.855469 117.480469 168.644531 C 116.972656 168.433594 116.492188 168.171875 116.035156 167.867188 C 115.578125 167.558594 115.15625 167.210938 114.765625 166.820312 C 101.503906 153.554688 88.742188 152.472656 82.988281 158.476562 C 77.234375 164.484375 78.316406 176.996094 91.328125 190.257812 L 126.609375 225.203125 C 127.003906 225.59375 127.351562 226.015625 127.660156 226.472656 C 127.964844 226.929688 128.226562 227.410156 128.4375 227.917969 C 128.648438 228.425781 128.808594 228.953125 128.917969 229.492188 C 129.023438 230.03125 129.078125 230.578125 129.078125 231.128906 C 129.078125 231.675781 129.023438 232.222656 128.917969 232.761719 C 128.808594 233.300781 128.648438 233.828125 128.4375 234.335938 C 128.226562 234.84375 127.964844 235.324219 127.660156 235.78125 C 127.351562 236.238281 127.003906 236.660156 126.609375 237.050781 C 125.816406 237.773438 124.910156 238.324219 123.902344 238.699219 C 122.890625 239.074219 121.847656 239.246094 120.773438 239.21875 Z M 120.773438 239.21875 " fill-opacity="1" fill-rule="nonzero"/></svg>