<svg xmlns="http://www.w3.org/2000/svg" xmlns:xlink="http://www.w3.org/1999/xlink" width="500" zoomAndPan="magnify" viewBox="0 0 375 374.999991" height="500" preserveAspectRatio="xMidYMid meet" version="1.0"><path fill="#0e5423" d="M 187.5 3.515625 C 83.90625 3.515625 0 87.421875 0 191.015625 C 0 273.984375 53.671875 344.0625 128.203125 368.90625 C 137.578125 370.546875 141.09375 364.921875 141.09375 360 C 141.09375 355.546875 140.859375 340.78125 140.859375 325.078125 C 93.75 333.75 81.5625 313.59375 77.8125 303.046875 C 75.703125 297.65625 66.5625 281.015625 58.59375 276.5625 C 52.03125 273.046875 42.65625 264.375 58.359375 264.140625 C 73.125 263.90625 83.671875 277.734375 87.1875 283.359375 C 104.0625 311.71875 131.015625 303.75 141.796875 298.828125 C 143.4375 286.640625 148.359375 278.4375 153.75 273.75 C 112.03125 269.0625 68.4375 252.890625 68.4375 181.171875 C 68.4375 160.78125 75.703125 143.90625 87.65625 130.78125 C 85.78125 126.09375 79.21875 106.875 89.53125 81.09375 C 89.53125 81.09375 105.234375 76.171875 141.09375 100.3125 C 156.09375 96.09375 172.03125 93.984375 187.96875 93.984375 C 203.90625 93.984375 219.84375 96.09375 234.84375 100.3125 C 270.703125 75.9375 286.40625 81.09375 286.40625 81.09375 C 296.71875 106.875 290.15625 126.09375 288.28125 130.78125 C 300.234375 143.90625 307.5 160.546875 307.5 181.171875 C 307.5 253.125 263.671875 269.0625 221.953125 273.75 C 228.75 279.609375 234.609375 290.859375 234.609375 308.4375 C 234.609375 333.515625 234.375 353.671875 234.375 360 C 234.375 364.921875 237.890625 370.78125 247.265625 368.90625 C 249.574219 368.128906 251.867188 367.304688 254.140625 366.4375 C 256.417969 365.566406 258.675781 364.65625 260.914062 363.699219 C 263.15625 362.742188 265.378906 361.746094 267.578125 360.703125 C 269.78125 359.660156 271.960938 358.574219 274.121094 357.449219 C 276.28125 356.320312 278.417969 355.152344 280.53125 353.941406 C 282.644531 352.730469 284.734375 351.480469 286.796875 350.1875 C 288.863281 348.894531 290.902344 347.5625 292.917969 346.191406 C 294.929688 344.820312 296.914062 343.414062 298.875 341.964844 C 300.832031 340.515625 302.761719 339.03125 304.664062 337.507812 C 306.5625 335.984375 308.433594 334.421875 310.273438 332.828125 C 312.113281 331.230469 313.921875 329.597656 315.699219 327.933594 C 317.476562 326.265625 319.21875 324.566406 320.929688 322.832031 C 322.640625 321.097656 324.316406 319.328125 325.957031 317.53125 C 327.597656 315.730469 329.203125 313.898438 330.773438 312.035156 C 332.34375 310.175781 333.878906 308.28125 335.375 306.359375 C 336.871094 304.4375 338.328125 302.488281 339.75 300.511719 C 341.171875 298.53125 342.554688 296.527344 343.894531 294.492188 C 345.238281 292.460938 346.542969 290.402344 347.804688 288.320312 C 349.066406 286.238281 350.289062 284.128906 351.46875 282 C 352.648438 279.867188 353.789062 277.714844 354.886719 275.542969 C 355.980469 273.367188 357.035156 271.171875 358.046875 268.953125 C 359.058594 266.738281 360.027344 264.503906 360.949219 262.25 C 361.875 259.996094 362.757812 257.726562 363.59375 255.4375 C 364.429688 253.148438 365.21875 250.847656 365.964844 248.527344 C 366.710938 246.210938 367.414062 243.878906 368.070312 241.53125 C 368.726562 239.183594 369.335938 236.828125 369.898438 234.457031 C 370.460938 232.089844 370.980469 229.707031 371.453125 227.320312 C 371.921875 224.929688 372.347656 222.53125 372.726562 220.125 C 373.101562 217.71875 373.433594 215.304688 373.71875 212.886719 C 374.003906 210.464844 374.238281 208.042969 374.429688 205.613281 C 374.617188 203.1875 374.761719 200.753906 374.855469 198.320312 C 374.953125 195.886719 375 193.453125 375 191.015625 C 375 87.421875 291.09375 3.515625 187.5 3.515625 Z M 187.5 3.515625 " fill-opacity="1" fill-rule="nonzero"/></svg>